<mxfile host="app.diagrams.net" modified="2023-11-06T06:42:07.112Z" agent="Mozilla/5.0 (Windows NT 10.0; Win64; x64) AppleWebKit/537.36 (KHTML, like Gecko) Chrome/118.0.0.0 Safari/537.36" etag="SUMHn-c4uX1VFOf3DKcR" version="22.0.8" type="github">
  <diagram name="Page-1" id="90a13364-a465-7bf4-72fc-28e22215d7a0">
    <mxGraphModel dx="1247" dy="692" grid="1" gridSize="10" guides="1" tooltips="1" connect="1" arrows="1" fold="1" page="1" pageScale="1.5" pageWidth="1169" pageHeight="826" background="none" math="0" shadow="0">
      <root>
        <mxCell id="0" style=";html=1;" />
        <mxCell id="1" style=";html=1;" parent="0" />
        <mxCell id="5r-JWKK5CV_Yb31bxAMr-4" value="Application" style="rounded=1;whiteSpace=wrap;html=1;verticalAlign=top;fillColor=#dae8fc;strokeColor=#6c8ebf;" vertex="1" parent="1">
          <mxGeometry x="420" y="330" width="320" height="140" as="geometry" />
        </mxCell>
        <mxCell id="5r-JWKK5CV_Yb31bxAMr-5" value="Wearable Device Package" style="rounded=1;whiteSpace=wrap;html=1;verticalAlign=top;fillColor=#dae8fc;strokeColor=#6c8ebf;" vertex="1" parent="1">
          <mxGeometry x="780" y="320" width="390" height="330" as="geometry" />
        </mxCell>
        <mxCell id="5r-JWKK5CV_Yb31bxAMr-30" style="edgeStyle=orthogonalEdgeStyle;rounded=0;orthogonalLoop=1;jettySize=auto;html=1;exitX=0;exitY=0.5;exitDx=0;exitDy=0;entryX=1;entryY=0.5;entryDx=0;entryDy=0;" edge="1" parent="1" source="5r-JWKK5CV_Yb31bxAMr-7" target="5r-JWKK5CV_Yb31bxAMr-13">
          <mxGeometry relative="1" as="geometry" />
        </mxCell>
        <mxCell id="5r-JWKK5CV_Yb31bxAMr-7" value="Bluetooth Receiver" style="rounded=1;whiteSpace=wrap;html=1;fillColor=#e1d5e7;strokeColor=#9673a6;" vertex="1" parent="1">
          <mxGeometry x="600" y="390" width="120" height="60" as="geometry" />
        </mxCell>
        <mxCell id="5r-JWKK5CV_Yb31bxAMr-10" value="Printed Circuit Board" style="rounded=1;whiteSpace=wrap;html=1;verticalAlign=top;fillColor=#d5e8d4;strokeColor=#82b366;" vertex="1" parent="1">
          <mxGeometry x="800" y="360" width="350" height="160" as="geometry" />
        </mxCell>
        <mxCell id="5r-JWKK5CV_Yb31bxAMr-29" style="edgeStyle=orthogonalEdgeStyle;rounded=0;orthogonalLoop=1;jettySize=auto;html=1;exitX=0;exitY=0.5;exitDx=0;exitDy=0;entryX=1;entryY=0.5;entryDx=0;entryDy=0;" edge="1" parent="1" source="5r-JWKK5CV_Yb31bxAMr-12" target="5r-JWKK5CV_Yb31bxAMr-7">
          <mxGeometry relative="1" as="geometry" />
        </mxCell>
        <mxCell id="5r-JWKK5CV_Yb31bxAMr-12" value="Bluetooth Transmitter" style="rounded=1;whiteSpace=wrap;html=1;fillColor=#e1d5e7;strokeColor=#9673a6;" vertex="1" parent="1">
          <mxGeometry x="830" y="390" width="120" height="60" as="geometry" />
        </mxCell>
        <mxCell id="5r-JWKK5CV_Yb31bxAMr-13" value="Display" style="rounded=1;whiteSpace=wrap;html=1;fillColor=#e1d5e7;strokeColor=#9673a6;" vertex="1" parent="1">
          <mxGeometry x="440" y="390" width="120" height="60" as="geometry" />
        </mxCell>
        <mxCell id="5r-JWKK5CV_Yb31bxAMr-14" style="edgeStyle=orthogonalEdgeStyle;rounded=0;orthogonalLoop=1;jettySize=auto;html=1;exitX=0.5;exitY=1;exitDx=0;exitDy=0;" edge="1" parent="1" source="5r-JWKK5CV_Yb31bxAMr-4" target="5r-JWKK5CV_Yb31bxAMr-4">
          <mxGeometry relative="1" as="geometry" />
        </mxCell>
        <mxCell id="5r-JWKK5CV_Yb31bxAMr-27" style="edgeStyle=orthogonalEdgeStyle;rounded=0;orthogonalLoop=1;jettySize=auto;html=1;exitX=0.5;exitY=0;exitDx=0;exitDy=0;entryX=0.5;entryY=1;entryDx=0;entryDy=0;" edge="1" parent="1" source="5r-JWKK5CV_Yb31bxAMr-16" target="5r-JWKK5CV_Yb31bxAMr-21">
          <mxGeometry relative="1" as="geometry" />
        </mxCell>
        <mxCell id="5r-JWKK5CV_Yb31bxAMr-16" value="Electrodes" style="rounded=1;whiteSpace=wrap;html=1;fillColor=#e1d5e7;strokeColor=#9673a6;" vertex="1" parent="1">
          <mxGeometry x="1000" y="490" width="120" height="60" as="geometry" />
        </mxCell>
        <mxCell id="5r-JWKK5CV_Yb31bxAMr-26" style="edgeStyle=orthogonalEdgeStyle;rounded=0;orthogonalLoop=1;jettySize=auto;html=1;exitX=0.5;exitY=0;exitDx=0;exitDy=0;" edge="1" parent="1" source="5r-JWKK5CV_Yb31bxAMr-19" target="5r-JWKK5CV_Yb31bxAMr-16">
          <mxGeometry relative="1" as="geometry" />
        </mxCell>
        <mxCell id="5r-JWKK5CV_Yb31bxAMr-19" value="Adhesion Mechanism&amp;nbsp;" style="rounded=1;whiteSpace=wrap;html=1;fillColor=#e1d5e7;strokeColor=#9673a6;" vertex="1" parent="1">
          <mxGeometry x="1000" y="570" width="120" height="60" as="geometry" />
        </mxCell>
        <mxCell id="5r-JWKK5CV_Yb31bxAMr-20" value="Battery System" style="rounded=1;whiteSpace=wrap;html=1;fillColor=#e1d5e7;strokeColor=#9673a6;" vertex="1" parent="1">
          <mxGeometry x="830" y="490" width="120" height="60" as="geometry" />
        </mxCell>
        <mxCell id="5r-JWKK5CV_Yb31bxAMr-28" style="edgeStyle=orthogonalEdgeStyle;rounded=0;orthogonalLoop=1;jettySize=auto;html=1;exitX=0;exitY=0.5;exitDx=0;exitDy=0;entryX=1;entryY=0.5;entryDx=0;entryDy=0;" edge="1" parent="1" source="5r-JWKK5CV_Yb31bxAMr-21" target="5r-JWKK5CV_Yb31bxAMr-12">
          <mxGeometry relative="1" as="geometry" />
        </mxCell>
        <mxCell id="5r-JWKK5CV_Yb31bxAMr-21" value="Signal Conditioning Module" style="rounded=1;whiteSpace=wrap;html=1;fillColor=#e1d5e7;strokeColor=#9673a6;" vertex="1" parent="1">
          <mxGeometry x="1000" y="390" width="120" height="60" as="geometry" />
        </mxCell>
        <mxCell id="5r-JWKK5CV_Yb31bxAMr-22" value="&lt;i&gt;Direction of arrow indicates flow of EEG Data&lt;/i&gt;" style="text;html=1;strokeColor=none;fillColor=none;align=center;verticalAlign=middle;whiteSpace=wrap;rounded=0;" vertex="1" parent="1">
          <mxGeometry x="640" y="720" width="250" height="30" as="geometry" />
        </mxCell>
        <mxCell id="5r-JWKK5CV_Yb31bxAMr-25" style="edgeStyle=orthogonalEdgeStyle;rounded=0;orthogonalLoop=1;jettySize=auto;html=1;exitX=0.5;exitY=0;exitDx=0;exitDy=0;" edge="1" parent="1" source="5r-JWKK5CV_Yb31bxAMr-24" target="5r-JWKK5CV_Yb31bxAMr-19">
          <mxGeometry relative="1" as="geometry" />
        </mxCell>
        <mxCell id="5r-JWKK5CV_Yb31bxAMr-24" value="User" style="text;html=1;strokeColor=none;fillColor=none;align=center;verticalAlign=middle;whiteSpace=wrap;rounded=0;" vertex="1" parent="1">
          <mxGeometry x="1030" y="700" width="60" height="20" as="geometry" />
        </mxCell>
      </root>
    </mxGraphModel>
  </diagram>
</mxfile>
